<svg xmlns="http://www.w3.org/2000/svg" version="1.1" xmlns:xlink="http://www.w3.org/1999/xlink" xmlns:svgjs="http://svgjs.com/svgjs" width="100%" height="100%" preserveAspectRatio="none" viewBox="0 0 1440 560">
    <g mask="url(&quot;#SvgjsMask2700&quot;)" fill="none">
        <rect width="1440" height="560" x="0" y="0" fill="url(#SvgjsLinearGradient2701)"></rect>
        <circle r="5" cx="-97.08" cy="359.32" fill="rgba(0, 192, 135, 1)"></circle>
        <circle r="5" cx="-91.12" cy="541.13" fill="rgba(0, 192, 135, 1)"></circle>
        <circle r="5" cx="-58.06" cy="646.06" fill="rgba(0, 192, 135, 1)"></circle>
        <circle r="5" cx="53.7" cy="388.28" fill="rgba(0, 192, 135, 1)"></circle>
        <circle r="5" cx="37.88" cy="493.63" fill="rgba(0, 192, 135, 1)"></circle>
        <circle r="5" cx="38.64" cy="700.53" fill="rgba(0, 192, 135, 1)"></circle>
        <circle r="5" cx="189.34" cy="338.7" fill="rgba(0, 192, 135, 1)"></circle>
        <circle r="5" cx="235.69" cy="508.22" fill="rgba(0, 192, 135, 1)"></circle>
        <circle r="5" cx="220.68" cy="708.24" fill="rgba(0, 192, 135, 1)"></circle>
        <circle r="5" cx="371.31" cy="366.36" fill="rgba(0, 192, 135, 1)"></circle>
        <circle r="5" cx="377.75" cy="545.7" fill="rgba(0, 192, 135, 1)"></circle>
        <circle r="5" cx="341.99" cy="653.82" fill="rgba(0, 192, 135, 1)"></circle>
        <circle r="5" cx="496.34" cy="526.48" fill="rgba(0, 192, 135, 1)"></circle>
        <circle r="5" cx="488.92" cy="700.27" fill="rgba(0, 192, 135, 1)"></circle>
        <circle r="5" cx="659.42" cy="236.1" fill="rgba(0, 192, 135, 1)"></circle>
        <circle r="5" cx="655.23" cy="361.71" fill="rgba(0, 192, 135, 1)"></circle>
        <circle r="5" cx="655.35" cy="561.71" fill="rgba(0, 192, 135, 1)"></circle>
        <circle r="5" cx="673.17" cy="709.99" fill="rgba(0, 192, 135, 1)"></circle>
        <circle r="5" cx="822.39" cy="103.84" fill="rgba(0, 192, 135, 1)"></circle>
        <circle r="5" cx="804.88" cy="257.05" fill="rgba(0, 192, 135, 1)"></circle>
        <circle r="5" cx="858.91" cy="381.81" fill="rgba(0, 192, 135, 1)"></circle>
        <circle r="5" cx="837.07" cy="502.55" fill="rgba(0, 192, 135, 1)"></circle>
        <circle r="5" cx="829.28" cy="711.06" fill="rgba(0, 192, 135, 1)"></circle>
        <circle r="5" cx="955.84" cy="-103.1" fill="rgba(0, 192, 135, 1)"></circle>
        <circle r="5" cx="967.71" cy="89.59" fill="rgba(0, 192, 135, 1)"></circle>
        <circle r="5" cx="941.23" cy="225.42" fill="rgba(0, 192, 135, 1)"></circle>
        <circle r="5" cx="950.58" cy="403.42" fill="rgba(0, 192, 135, 1)"></circle>
        <circle r="5" cx="950.47" cy="528.86" fill="rgba(0, 192, 135, 1)"></circle>
        <circle r="5" cx="990.26" cy="684.39" fill="rgba(0, 192, 135, 1)"></circle>
        <circle r="5" cx="1129.12" cy="-67.11" fill="rgba(0, 192, 135, 1)"></circle>
        <circle r="5" cx="1154.45" cy="87.56" fill="rgba(0, 192, 135, 1)"></circle>
        <circle r="5" cx="1121.28" cy="224.2" fill="rgba(0, 192, 135, 1)"></circle>
        <circle r="5" cx="1155.21" cy="409.13" fill="rgba(0, 192, 135, 1)"></circle>
        <circle r="5" cx="1156.8" cy="526.43" fill="rgba(0, 192, 135, 1)"></circle>
        <circle r="5" cx="1146.35" cy="654.89" fill="rgba(0, 192, 135, 1)"></circle>
        <circle r="5" cx="1254.32" cy="-53.28" fill="rgba(0, 192, 135, 1)"></circle>
        <circle r="5" cx="1240.19" cy="78.35" fill="rgba(0, 192, 135, 1)"></circle>
        <circle r="5" cx="1310.97" cy="217.61" fill="rgba(0, 192, 135, 1)"></circle>
        <circle r="5" cx="1272.71" cy="355.43" fill="rgba(0, 192, 135, 1)"></circle>
        <circle r="5" cx="1265.72" cy="533.67" fill="rgba(0, 192, 135, 1)"></circle>
        <circle r="5" cx="1257.21" cy="702.5" fill="rgba(0, 192, 135, 1)"></circle>
        <circle r="5" cx="1435.73" cy="69.79" fill="rgba(0, 192, 135, 1)"></circle>
        <circle r="5" cx="1418.44" cy="218.1" fill="rgba(0, 192, 135, 1)"></circle>
        <circle r="5" cx="1409.96" cy="539.9" fill="rgba(0, 192, 135, 1)"></circle>
        <circle r="5" cx="1451.79" cy="706.15" fill="rgba(0, 192, 135, 1)"></circle>
        <circle r="5" cx="1542.32" cy="-40.36" fill="rgba(0, 192, 135, 1)"></circle>
        <circle r="5" cx="1546.85" cy="42.3" fill="rgba(0, 192, 135, 1)"></circle>
        <circle r="5" cx="1576.5" cy="193.6" fill="rgba(0, 192, 135, 1)"></circle>
        <circle r="5" cx="1583.51" cy="389.8" fill="rgba(0, 192, 135, 1)"></circle>
        <circle r="5" cx="1544.06" cy="549.17" fill="rgba(0, 192, 135, 1)"></circle>
        <circle r="5" cx="1565.27" cy="641.52" fill="rgba(0, 192, 135, 1)"></circle>
        <circle r="25" cx="96.41" cy="697.12" fill="url(#SvgjsRadialGradient2702)"></circle>
        <circle r="25" cx="956.99" cy="668.67" fill="url(#SvgjsRadialGradient2702)"></circle>
        <circle r="25" cx="1136.37" cy="399.38" fill="url(#SvgjsRadialGradient2702)"></circle>
        <circle r="25" cx="1295.31" cy="-96.55" fill="url(#SvgjsRadialGradient2702)"></circle>
        <circle r="25" cx="1417.97" cy="246.44" fill="url(#SvgjsRadialGradient2702)"></circle>
        <circle r="25" cx="1544.84" cy="-66.28" fill="url(#SvgjsRadialGradient2702)"></circle>
        <circle r="5" cx="-51.55" cy="505.72" fill="#82e9ba"></circle>
        <circle r="5" cx="74.97" cy="527.54" fill="#82e9ba"></circle>
        <circle r="5" cx="204.77" cy="542.43" fill="#82e9ba"></circle>
        <circle r="5" cx="197.26" cy="705.92" fill="#82e9ba"></circle>
        <circle r="5" cx="351.76" cy="558.92" fill="#82e9ba"></circle>
        <circle r="5" cx="357.99" cy="642.96" fill="#82e9ba"></circle>
        <circle r="5" cx="545.87" cy="558.27" fill="#82e9ba"></circle>
        <circle r="5" cx="515.93" cy="684.1" fill="#82e9ba"></circle>
        <circle r="5" cx="693.99" cy="514.93" fill="#82e9ba"></circle>
        <circle r="5" cx="702.85" cy="663.11" fill="#82e9ba"></circle>
        <circle r="5" cx="851.71" cy="373.05" fill="#82e9ba"></circle>
        <circle r="5" cx="832.01" cy="546.05" fill="#82e9ba"></circle>
        <circle r="5" cx="859.6" cy="658.92" fill="#82e9ba"></circle>
        <circle r="5" cx="940.65" cy="388.14" fill="#82e9ba"></circle>
        <circle r="5" cx="969.22" cy="527.01" fill="#82e9ba"></circle>
        <circle r="5" cx="1101.22" cy="197.27" fill="#82e9ba"></circle>
        <circle r="5" cx="1104.34" cy="491.83" fill="#82e9ba"></circle>
        <circle r="5" cx="1132.87" cy="651.57" fill="#82e9ba"></circle>
        <circle r="5" cx="1290.37" cy="91.69" fill="#82e9ba"></circle>
        <circle r="5" cx="1252.32" cy="236.23" fill="#82e9ba"></circle>
        <circle r="5" cx="1257.19" cy="396.44" fill="#82e9ba"></circle>
        <circle r="5" cx="1297.05" cy="558.43" fill="#82e9ba"></circle>
        <circle r="5" cx="1253.61" cy="679.44" fill="#82e9ba"></circle>
        <circle r="5" cx="1452.05" cy="-67.17" fill="#82e9ba"></circle>
        <circle r="5" cx="1437.96" cy="42.87" fill="#82e9ba"></circle>
        <circle r="5" cx="1450.69" cy="345.54" fill="#82e9ba"></circle>
        <circle r="5" cx="1449.67" cy="503.85" fill="#82e9ba"></circle>
        <circle r="5" cx="1414.77" cy="709.99" fill="#82e9ba"></circle>
        <circle r="5" cx="1543.58" cy="72.68" fill="#82e9ba"></circle>
        <circle r="5" cx="1589.39" cy="215.56" fill="#82e9ba"></circle>
        <circle r="5" cx="1612.4" cy="348.82" fill="#82e9ba"></circle>
        <circle r="5" cx="1555.43" cy="529.73" fill="#82e9ba"></circle>
        <circle r="5" cx="1602.54" cy="671.41" fill="#82e9ba"></circle>
    </g>
    <defs>
        <mask id="SvgjsMask2700">
            <rect width="1440" height="560" fill="#ffffff"></rect>
        </mask>
        <linearGradient x1="84.72%" y1="139.29%" x2="15.28%" y2="-39.29%" gradientUnits="userSpaceOnUse" id="SvgjsLinearGradient2701">
            <stop stop-color="rgba(14, 42, 71, 1)" offset="0.29"></stop>
            <stop stop-color="rgba(0, 170, 95, 1)" offset="1"></stop>
        </linearGradient>
        <radialGradient id="SvgjsRadialGradient2702">
            <stop stop-color="#ffffff" offset="0.1"></stop>
            <stop stop-color="rgba(4, 211, 116, 1)" offset="0.2"></stop>
            <stop stop-color="rgba(4, 211, 116, 0)" offset="1"></stop>
        </radialGradient>
    </defs>
</svg>  